<mxfile host="app.diagrams.net" modified="2021-03-05T06:04:39.881Z" agent="5.0 (Windows NT 10.0; Win64; x64) AppleWebKit/537.36 (KHTML, like Gecko) Chrome/84.0.4147.105 Safari/537.36" etag="7baE8bej5Kzz4ZvG2Cdi" version="14.4.2" type="github">
  <diagram id="6j3dQFhbYTJ2u7eZ2uXB" name="第 1 页">
    <mxGraphModel dx="1422" dy="762" grid="1" gridSize="10" guides="1" tooltips="1" connect="1" arrows="1" fold="1" page="1" pageScale="1" pageWidth="827" pageHeight="1169" math="0" shadow="0">
      <root>
        <mxCell id="0" />
        <mxCell id="1" parent="0" />
        <mxCell id="c2irgHofqOnbrOl-X08O-2" value="0：初始状态" style="ellipse;whiteSpace=wrap;html=1;aspect=fixed;fillColor=#dae8fc;strokeColor=#6c8ebf;" vertex="1" parent="1">
          <mxGeometry x="110" y="230" width="80" height="80" as="geometry" />
        </mxCell>
        <mxCell id="c2irgHofqOnbrOl-X08O-3" value="1：截取中&lt;br&gt;状态" style="ellipse;whiteSpace=wrap;html=1;aspect=fixed;fillColor=#ffcd28;strokeColor=#d79b00;gradientColor=#ffa500;" vertex="1" parent="1">
          <mxGeometry x="450" y="230" width="80" height="80" as="geometry" />
        </mxCell>
        <mxCell id="c2irgHofqOnbrOl-X08O-4" value="2：发表中&lt;br&gt;状态" style="ellipse;whiteSpace=wrap;html=1;aspect=fixed;fillColor=#fa6800;strokeColor=#C73500;fontColor=#ffffff;" vertex="1" parent="1">
          <mxGeometry x="450" y="450" width="80" height="80" as="geometry" />
        </mxCell>
        <mxCell id="c2irgHofqOnbrOl-X08O-5" value="100：处理完成" style="ellipse;whiteSpace=wrap;html=1;aspect=fixed;fillColor=#dae8fc;strokeColor=#6c8ebf;" vertex="1" parent="1">
          <mxGeometry x="110" y="450" width="80" height="80" as="geometry" />
        </mxCell>
        <mxCell id="c2irgHofqOnbrOl-X08O-6" value="" style="endArrow=classic;html=1;" edge="1" parent="1" source="c2irgHofqOnbrOl-X08O-2">
          <mxGeometry width="50" height="50" relative="1" as="geometry">
            <mxPoint x="190" y="310" as="sourcePoint" />
            <mxPoint x="449" y="270" as="targetPoint" />
          </mxGeometry>
        </mxCell>
        <mxCell id="c2irgHofqOnbrOl-X08O-7" value="" style="endArrow=classic;html=1;entryX=0.5;entryY=0;entryDx=0;entryDy=0;exitX=0.5;exitY=1;exitDx=0;exitDy=0;" edge="1" parent="1" source="c2irgHofqOnbrOl-X08O-3" target="c2irgHofqOnbrOl-X08O-4">
          <mxGeometry width="50" height="50" relative="1" as="geometry">
            <mxPoint x="200" y="280" as="sourcePoint" />
            <mxPoint x="459" y="280" as="targetPoint" />
          </mxGeometry>
        </mxCell>
        <mxCell id="c2irgHofqOnbrOl-X08O-8" value="" style="endArrow=classic;html=1;entryX=1;entryY=0.5;entryDx=0;entryDy=0;exitX=0;exitY=0.5;exitDx=0;exitDy=0;" edge="1" parent="1" source="c2irgHofqOnbrOl-X08O-4" target="c2irgHofqOnbrOl-X08O-5">
          <mxGeometry width="50" height="50" relative="1" as="geometry">
            <mxPoint x="500" y="320" as="sourcePoint" />
            <mxPoint x="500" y="460" as="targetPoint" />
          </mxGeometry>
        </mxCell>
        <mxCell id="c2irgHofqOnbrOl-X08O-9" value="" style="endArrow=classic;html=1;entryX=0.5;entryY=0;entryDx=0;entryDy=0;" edge="1" parent="1" target="c2irgHofqOnbrOl-X08O-2">
          <mxGeometry width="50" height="50" relative="1" as="geometry">
            <mxPoint x="150" y="150" as="sourcePoint" />
            <mxPoint x="459" y="280" as="targetPoint" />
          </mxGeometry>
        </mxCell>
        <mxCell id="c2irgHofqOnbrOl-X08O-10" value="任务生成，写入DB" style="text;html=1;strokeColor=none;fillColor=none;align=center;verticalAlign=middle;whiteSpace=wrap;rounded=0;" vertex="1" parent="1">
          <mxGeometry x="86" y="184" width="120" height="20" as="geometry" />
        </mxCell>
        <mxCell id="c2irgHofqOnbrOl-X08O-11" value="转贴任务处理(帖子类型: 视频贴)" style="text;html=1;strokeColor=none;fillColor=none;align=center;verticalAlign=middle;whiteSpace=wrap;rounded=0;" vertex="1" parent="1">
          <mxGeometry x="222" y="246" width="180" height="20" as="geometry" />
        </mxCell>
        <mxCell id="c2irgHofqOnbrOl-X08O-12" value="截小视频成功" style="text;html=1;strokeColor=none;fillColor=none;align=center;verticalAlign=middle;whiteSpace=wrap;rounded=0;horizontal=1;" vertex="1" parent="1">
          <mxGeometry x="440" y="335" width="90" height="70" as="geometry" />
        </mxCell>
        <mxCell id="c2irgHofqOnbrOl-X08O-13" value="发表成功" style="text;html=1;strokeColor=none;fillColor=none;align=center;verticalAlign=middle;whiteSpace=wrap;rounded=0;" vertex="1" parent="1">
          <mxGeometry x="205" y="464" width="250" height="20" as="geometry" />
        </mxCell>
        <mxCell id="c2irgHofqOnbrOl-X08O-15" value="截小视频失败" style="text;html=1;strokeColor=none;fillColor=none;align=center;verticalAlign=middle;whiteSpace=wrap;rounded=0;horizontal=1;" vertex="1" parent="1">
          <mxGeometry x="530" y="221" width="90" height="70" as="geometry" />
        </mxCell>
        <mxCell id="c2irgHofqOnbrOl-X08O-16" value="" style="endArrow=classic;html=1;exitX=1;exitY=1;exitDx=0;exitDy=0;" edge="1" parent="1" source="c2irgHofqOnbrOl-X08O-2" target="c2irgHofqOnbrOl-X08O-4">
          <mxGeometry width="50" height="50" relative="1" as="geometry">
            <mxPoint x="200" y="280" as="sourcePoint" />
            <mxPoint x="459" y="280" as="targetPoint" />
          </mxGeometry>
        </mxCell>
        <mxCell id="c2irgHofqOnbrOl-X08O-17" value="转贴任务处理(帖子类型：纯文字贴)" style="text;html=1;strokeColor=none;fillColor=none;align=center;verticalAlign=middle;whiteSpace=wrap;rounded=0;" vertex="1" parent="1">
          <mxGeometry x="190" y="359" width="200" height="20" as="geometry" />
        </mxCell>
        <mxCell id="c2irgHofqOnbrOl-X08O-19" value="发表失败" style="text;html=1;strokeColor=none;fillColor=none;align=center;verticalAlign=middle;whiteSpace=wrap;rounded=0;" vertex="1" parent="1">
          <mxGeometry x="560" y="464" width="52" height="20" as="geometry" />
        </mxCell>
        <mxCell id="c2irgHofqOnbrOl-X08O-20" value="无需处理" style="text;html=1;strokeColor=none;fillColor=none;align=center;verticalAlign=middle;whiteSpace=wrap;rounded=0;" vertex="1" parent="1">
          <mxGeometry x="86" y="390" width="120" height="20" as="geometry" />
        </mxCell>
        <mxCell id="c2irgHofqOnbrOl-X08O-21" value="" style="endArrow=classic;html=1;entryX=0.5;entryY=0;entryDx=0;entryDy=0;exitX=0.5;exitY=1;exitDx=0;exitDy=0;" edge="1" parent="1" source="c2irgHofqOnbrOl-X08O-2" target="c2irgHofqOnbrOl-X08O-5">
          <mxGeometry width="50" height="50" relative="1" as="geometry">
            <mxPoint x="-40" y="310" as="sourcePoint" />
            <mxPoint x="10" y="260" as="targetPoint" />
          </mxGeometry>
        </mxCell>
        <mxCell id="c2irgHofqOnbrOl-X08O-22" value="11：截小视频失败状态" style="ellipse;whiteSpace=wrap;html=1;aspect=fixed;strokeColor=#d79b00;gradientColor=#ffa500;fillColor=#99CCFF;" vertex="1" parent="1">
          <mxGeometry x="630" y="230" width="80" height="80" as="geometry" />
        </mxCell>
        <mxCell id="c2irgHofqOnbrOl-X08O-23" value="" style="endArrow=classic;html=1;entryX=0;entryY=0.5;entryDx=0;entryDy=0;exitX=1;exitY=0.5;exitDx=0;exitDy=0;" edge="1" parent="1" source="c2irgHofqOnbrOl-X08O-3" target="c2irgHofqOnbrOl-X08O-22">
          <mxGeometry width="50" height="50" relative="1" as="geometry">
            <mxPoint x="450" y="140" as="sourcePoint" />
            <mxPoint x="500" y="90" as="targetPoint" />
          </mxGeometry>
        </mxCell>
        <mxCell id="c2irgHofqOnbrOl-X08O-24" value="21：发表失败状态" style="ellipse;whiteSpace=wrap;html=1;aspect=fixed;strokeColor=#d79b00;gradientColor=#ffa500;fillColor=#CCCCFF;" vertex="1" parent="1">
          <mxGeometry x="640" y="450" width="80" height="80" as="geometry" />
        </mxCell>
        <mxCell id="c2irgHofqOnbrOl-X08O-27" value="" style="endArrow=classic;html=1;entryX=0;entryY=0.5;entryDx=0;entryDy=0;exitX=1;exitY=0.5;exitDx=0;exitDy=0;" edge="1" parent="1" source="c2irgHofqOnbrOl-X08O-4" target="c2irgHofqOnbrOl-X08O-24">
          <mxGeometry width="50" height="50" relative="1" as="geometry">
            <mxPoint x="630" y="600" as="sourcePoint" />
            <mxPoint x="680" y="550" as="targetPoint" />
          </mxGeometry>
        </mxCell>
      </root>
    </mxGraphModel>
  </diagram>
</mxfile>
